<svg width="512" height="512" viewBox="0 0 512 512" fill="none" xmlns="http://www.w3.org/2000/svg">
<rect width="512" height="512" rx="225" fill="white"/>
<path d="M130.005 109.662C162.062 108.209 204.898 109.62 237.91 109.487C268.172 109.213 298.436 109.132 328.699 109.241C342.949 109.28 357.258 109.549 371.877 109.579C388.51 107.551 400.365 121.407 399.995 135.865C399.594 151.544 377.536 176.622 368.355 190.078C356.2 207.894 344.189 225.597 331.411 242.635C326.559 248.081 322.223 255.133 316.799 261.329C319.19 249.628 320.139 221.629 314.943 210.3C310.78 201.226 300.155 197.618 290.755 194.466C296.325 185.33 311.989 166.759 320.408 159.843C311.457 160.623 296.709 160.547 287.348 160.674C268.222 160.946 249.093 161.123 229.965 161.207L169.962 161.278C160.465 161.284 130.124 162.379 123.974 158.936C104.115 147.814 105.841 115.678 130.005 109.662Z" fill="#122940"/>
<path d="M264.035 217.284C273.931 216.628 285.503 216.738 295.55 216.641C296.039 231.81 298.258 323.504 293.564 330.533C288.18 334.381 276.95 333.836 270.049 333.799C259.367 325.64 254.231 312.774 250.788 300.998C218.859 322.145 175.582 391.35 141.914 400.072C117.082 402.554 97.705 378.469 116.575 360.688C138.947 339.606 159.71 317.073 179.566 294.086C188.176 284.118 197.134 276.233 205.379 265.529C195.433 260.613 160.624 244.249 172.049 227.835C175.114 223.432 183.054 222.375 188.77 222.213C213.934 221.501 238.946 219.316 264.035 217.284Z" fill="#26BCBC"/>
<path d="M234.637 349.098C245.053 348.449 265.477 349.618 276.838 349.8C303.797 350.259 330.758 350.453 357.721 350.385C369.656 350.408 385.738 349.166 394.172 356.839C399.992 362.187 403.17 369.397 402.993 376.858C402.387 405.546 374.162 403.268 351.521 402.729C318.403 402.007 285.112 402.633 252.017 402.546C231.521 402.493 201.048 403.343 181.414 399.834C192.399 387.029 219.202 356.617 234.637 349.098Z" fill="#122940"/>
</svg>
