<svg width="32" height="32" viewBox="0 0 32 32" fill="none" xmlns="http://www.w3.org/2000/svg">
  <defs>
    <linearGradient id="dalle-gradient" x1="0%" y1="0%" x2="100%" y2="100%">
      <stop offset="0%" style="stop-color:#EC4899;stop-opacity:1" />
      <stop offset="100%" style="stop-color:#DB2777;stop-opacity:1" />
    </linearGradient>
  </defs>
  <rect width="32" height="32" rx="6" fill="url(#dalle-gradient)"/>
  <path d="M6 10h20v2H6v-2zm0 4h20v2H6v-2zm0 4h20v2H6v-2z" fill="white"/>
  <rect x="8" y="11" width="2" height="2" fill="white"/>
  <rect x="8" y="15" width="2" height="2" fill="white"/>
  <rect x="8" y="19" width="2" height="2" fill="white"/>
  <rect x="22" y="11" width="2" height="2" fill="white"/>
  <rect x="22" y="15" width="2" height="2" fill="white"/>
  <rect x="22" y="19" width="2" height="2" fill="white"/>
  <!-- Blue verification tick -->
  <circle cx="26" cy="6" r="4" fill="#1DA1F2"/>
  <path d="M24.5 6l1 1 2-2" stroke="white" stroke-width="1" fill="none" stroke-linecap="round" stroke-linejoin="round"/>
</svg>
