<svg width="32" height="32" viewBox="0 0 32 32" fill="none" xmlns="http://www.w3.org/2000/svg">
  <defs>
    <linearGradient id="midjourney-gradient" x1="0%" y1="0%" x2="100%" y2="100%">
      <stop offset="0%" style="stop-color:#A78BFA;stop-opacity:1" />
      <stop offset="100%" style="stop-color:#8B5CF6;stop-opacity:1" />
    </linearGradient>
  </defs>
  <rect width="32" height="32" rx="6" fill="url(#midjourney-gradient)"/>
  <path d="M16 6C10.477 6 6 10.477 6 16s4.477 10 10 10 10-4.477 10-10S21.523 6 16 6zm0 2c4.411 0 8 3.589 8 8s-3.589 8-8 8-8-3.589-8-8 3.589-8 8-8z" fill="white"/>
  <path d="M10 10h12v2H10v-2zm0 4h12v2H10v-2zm0 4h8v2h-8v-2z" fill="white"/>
  <circle cx="12" cy="11" r="0.5" fill="white"/>
  <circle cx="12" cy="15" r="0.5" fill="white"/>
  <circle cx="12" cy="19" r="0.5" fill="white"/>
  <!-- Blue verification tick -->
  <circle cx="26" cy="6" r="4" fill="#1DA1F2"/>
  <path d="M24.5 6l1 1 2-2" stroke="white" stroke-width="1" fill="none" stroke-linecap="round" stroke-linejoin="round"/>
</svg>
